# xmcd
#
# Track frame offsets: 
#        150
#        33772
#        46703
#        71913
#        114627
#        134137
#        163246
#        190107
#        207455
#        230080
#        269141
#
# Disc length: 3931 seconds
#
# Revision: 0
# Processed by: cddbd v1.5.2PL0 Copyright (c) Steve Scherf et al.
# Submitted via: ExactAudioCopy v0.99pb5
#
DISCID=ae0f590b
DTITLE=A国乐 - A发烧国乐大全-中国的月亮
DYEAR=2005
DGENRE=Musical
TTITLE0=流水（古琴）
TTITLE1=五梆子（笛子）
TTITLE2=楚歌（埙）
TTITLE3=春江花月夜（合奏）
TTITLE4=将军令（古筝）
TTITLE5=二泉映月（二胡）
TTITLE6=平沙落雁（箫）
TTITLE7=抬花轿（唢呐）
TTITLE8=月牙五更（高音板胡）
TTITLE9=湘妃竹（箜篌）
TTITLE10=汉宫秋月（琵琶）
EXTD=
EXTT0=
EXTT1=
EXTT2=
EXTT3=
EXTT4=
EXTT5=
EXTT6=
EXTT7=
EXTT8=
EXTT9=
EXTT10=
PLAYORDER=
